<?xml version="1.0" encoding="UTF-8" standalone="no"?>
<!DOCTYPE svg PUBLIC "-//W3C//DTD SVG 1.1//EN" "http://www.w3.org/Graphics/SVG/1.1/DTD/svg11.dtd">
<svg width="100%" height="100%" viewBox="0 0 280 280" version="1.1" xmlns="http://www.w3.org/2000/svg" xmlns:xlink="http://www.w3.org/1999/xlink" xml:space="preserve" xmlns:serif="http://www.serif.com/" style="fill-rule:evenodd;clip-rule:evenodd;stroke-linecap:round;stroke-linejoin:round;stroke-miterlimit:10;">
    <g transform="matrix(3.14762,0,0,3.14762,-1187.37,-114.956)">
        <path d="M426.789,48.485C435.137,52.367 440.928,60.83 440.928,70.645C440.928,79.078 436.654,86.507 430.165,90.895L430.158,90.895L423.783,105.029L409.234,105.029L402.859,90.895L402.852,90.888C396.355,86.499 392.089,79.071 392.089,70.645C392.089,57.157 403.024,46.221 416.513,46.221C420.182,46.221 423.664,47.032 426.789,48.485" style="fill:rgb(255,196,92);fill-rule:nonzero;"/>
        <path d="M432.432,84.914C431.119,86.359 429.635,87.647 428.012,88.744L428.005,88.744L421.63,102.878L407.081,102.878L400.706,88.744L400.699,88.737C394.202,84.348 389.936,76.92 389.936,68.494C389.936,55.006 400.871,44.07 414.36,44.07C418.031,44.07 421.514,44.881 424.638,46.334" style="fill:none;fill-rule:nonzero;stroke:black;stroke-width:2px;"/>
        <path d="M428.013,88.744L428.013,88.737" style="fill:none;fill-rule:nonzero;stroke:black;stroke-width:2px;"/>
        <rect x="405.136" y="102.877" width="18.439" height="10.766" style="fill:none;stroke:black;stroke-width:2px;"/>
        <path d="M406.831,113.643C406.831,113.643 406.879,117.929 414.355,117.929C421.831,117.929 421.731,113.643 421.731,113.643" style="fill:none;fill-rule:nonzero;stroke:black;stroke-width:2px;"/>
        <path d="M423.575,105.769L405.136,110.603" style="fill:none;fill-rule:nonzero;stroke:black;stroke-width:2px;"/>
        <path d="M410.469,102.877L404.755,76.898" style="fill:none;fill-rule:nonzero;stroke:black;stroke-width:2px;"/>
        <path d="M418.509,102.877L421.732,85.47" style="fill:none;fill-rule:nonzero;stroke:black;stroke-width:2px;"/>
        <path d="M395.346,74.518C394.135,70.46 394.281,66.01 395.753,62.039C397.226,58.068 400.018,54.6 403.583,52.313" style="fill:none;fill-rule:nonzero;stroke:black;stroke-width:2px;"/>
        <path d="M407.521,49.854C409.48,49.131 411.57,48.764 413.658,48.775" style="fill:none;fill-rule:nonzero;stroke:black;stroke-width:2px;"/>
        <g>
            <g>
                <g>
                    <path d="M452.415,69.784C453.111,67.884 453.462,65.854 453.476,63.839C453.462,61.824 453.11,59.802 452.415,57.894L448.356,59.371C447.833,57.93 447.058,56.603 446.083,55.449L449.403,52.66C446.814,49.555 443.093,47.418 439.099,46.723L438.353,50.982C437.614,50.846 436.861,50.781 436.087,50.781C435.312,50.781 434.552,50.846 433.814,50.982L433.068,46.723C431.075,47.074 429.146,47.777 427.389,48.788C425.639,49.799 424.055,51.104 422.764,52.66L426.084,55.449C425.109,56.603 424.334,57.93 423.818,59.379L419.752,57.895C419.056,59.802 418.705,61.825 418.691,63.84C418.705,65.855 419.057,67.884 419.752,69.785L423.818,68.308C424.341,69.749 425.109,71.076 426.084,72.23L422.764,75.019C424.055,76.575 425.64,77.88 427.389,78.891C429.146,79.902 431.075,80.605 433.068,80.956L433.814,76.697C434.553,76.833 435.313,76.898 436.087,76.898C436.861,76.898 437.614,76.833 438.353,76.697L439.099,80.956C443.093,80.26 446.815,78.124 449.403,75.019L446.09,72.237C447.058,71.083 447.832,69.756 448.356,68.307L452.415,69.784ZM436.087,71.749C431.713,71.749 428.17,68.207 428.17,63.84C428.17,59.473 431.712,55.931 436.087,55.931C440.454,55.931 443.996,59.473 443.996,63.84C443.996,68.207 440.454,71.749 436.087,71.749Z" style="fill:none;fill-rule:nonzero;stroke:black;stroke-width:2px;"/>
                </g>
            </g>
        </g>
    </g>
</svg>
