<?xml version="1.0" encoding="UTF-8" standalone="no"?>
<!DOCTYPE svg PUBLIC "-//W3C//DTD SVG 1.1//EN" "http://www.w3.org/Graphics/SVG/1.1/DTD/svg11.dtd">
<svg width="100%" height="100%" viewBox="0 0 280 280" version="1.1" xmlns="http://www.w3.org/2000/svg" xmlns:xlink="http://www.w3.org/1999/xlink" xml:space="preserve" xmlns:serif="http://www.serif.com/" style="fill-rule:evenodd;clip-rule:evenodd;stroke-linecap:round;stroke-linejoin:round;stroke-miterlimit:10;">
    <g transform="matrix(2.33055,0,0,2.33055,-78.0381,-865.478)">
        <g>
            <g>
                <path d="M118.061,446.316L114.722,446.316L114.722,463.074C114.722,465.059 113.117,466.664 111.132,466.664L101.232,466.664C99.247,466.664 97.642,465.059 97.642,463.074L97.642,446.316L94.299,446.316C91.537,446.316 89.811,443.324 91.194,440.933L103.071,420.355C104.454,417.964 107.906,417.96 109.29,420.355L121.171,440.933C122.554,443.323 120.828,446.316 118.061,446.316Z" style="fill:rgb(255,196,92);fill-rule:nonzero;"/>
                <path d="M116.533,444.787L113.194,444.787L113.194,461.545C113.194,463.53 111.589,465.135 109.604,465.135L99.704,465.135C97.719,465.135 96.114,463.53 96.114,461.545L96.114,444.787L92.771,444.787C90.009,444.787 88.283,441.795 89.666,439.404L101.543,418.826C102.926,416.435 106.378,416.431 107.762,418.826L119.643,439.404C121.026,441.795 119.3,444.787 116.533,444.787Z" style="fill:none;fill-rule:nonzero;stroke:black;stroke-width:2px;"/>
            </g>
            <path d="M107.878,416.032C104.991,413.179 101.024,411.418 96.648,411.418C87.822,411.418 80.662,418.57 80.662,427.396C80.662,431.873 82.504,435.919 85.472,438.82L85.278,447.088L82.206,452.406L80.586,451.42C80.066,451.061 79.57,450.679 79.065,450.304L78.309,449.731C78.072,449.532 77.843,449.311 77.606,449.104L76.215,447.828L74.939,446.437C74.733,446.2 74.511,445.971 74.312,445.726L73.739,444.977C73.365,444.473 72.983,443.968 72.623,443.456L71.637,441.836L76.955,438.764C75.962,437.068 75.197,435.226 74.678,433.277L68.756,434.866C68.038,432.436 67.824,429.899 67.747,427.393C67.823,424.887 68.037,422.357 68.756,419.92L74.678,421.509C75.198,419.568 75.969,417.719 76.955,416.022L71.637,412.95L72.623,411.338C72.982,410.818 73.364,410.322 73.739,409.81L74.312,409.061C74.511,408.816 74.732,408.587 74.939,408.35L76.215,406.959L77.606,405.683C77.843,405.477 78.072,405.263 78.309,405.056L79.065,404.491C79.569,404.117 80.066,403.727 80.586,403.368L82.206,402.382L85.286,407.708C86.982,406.715 88.824,405.943 90.765,405.431L89.176,399.501C91.606,398.79 94.143,398.576 96.649,398.492C99.155,398.576 101.685,398.79 104.115,399.501L102.533,405.431C104.474,405.943 106.315,406.715 108.012,407.708L111.092,402.382L112.704,403.368C113.224,403.727 113.72,404.117 114.225,404.491L114.981,405.056C115.225,405.262 115.455,405.476 115.684,405.683L117.082,406.959L118.358,408.35C118.564,408.587 118.778,408.816 118.985,409.061L119.55,409.81C119.924,410.322 120.314,410.819 120.673,411.338L121.659,412.95L116.333,416.029L107.878,416.032Z" style="fill:rgb(118,226,255);fill-rule:nonzero;"/>
            <g>
                <g>
                    <g>
                        <path d="M114.04,413.741L119.366,410.662L118.38,409.05C118.021,408.53 117.631,408.034 117.257,407.522L116.692,406.773C116.486,406.528 116.272,406.299 116.065,406.062L114.789,404.671L113.391,403.395C113.162,403.189 112.933,402.975 112.688,402.768L111.932,402.203C111.428,401.829 110.931,401.439 110.411,401.08L108.799,400.094L105.719,405.42C104.023,404.427 102.181,403.655 100.24,403.143L101.822,397.213C99.392,396.502 96.863,396.288 94.356,396.204C91.85,396.288 89.313,396.502 86.883,397.213L88.472,403.143C86.531,403.655 84.689,404.427 82.993,405.42L79.913,400.094L78.293,401.08C77.773,401.439 77.277,401.829 76.772,402.203L76.016,402.768C75.779,402.974 75.55,403.188 75.313,403.395L73.922,404.671L72.646,406.062C72.44,406.299 72.218,406.528 72.019,406.773L71.446,407.522C71.072,408.034 70.69,408.531 70.33,409.05L69.344,410.662L74.662,413.734C73.676,415.43 72.904,417.28 72.385,419.221L66.463,417.632C65.745,420.07 65.531,422.599 65.454,425.105C65.53,427.611 65.744,430.148 66.463,432.578L72.385,430.989C72.905,432.938 73.669,434.779 74.662,436.476L69.344,439.548L70.33,441.168C70.689,441.68 71.071,442.184 71.446,442.689L72.019,443.438C72.218,443.682 72.439,443.912 72.646,444.149L73.922,445.54L75.313,446.816C75.55,447.022 75.779,447.244 76.016,447.443L76.772,448.016C77.276,448.39 77.773,448.773 78.293,449.132L79.913,450.118L82.985,444.8M83.179,436.528C80.212,433.627 78.369,429.581 78.369,425.104C78.369,416.278 85.529,409.126 94.355,409.126C98.731,409.126 102.698,410.887 105.585,413.74" style="fill:none;fill-rule:nonzero;stroke:black;stroke-width:2px;"/>
                    </g>
                </g>
            </g>
        </g>
    </g>
</svg>
