<?xml version="1.0" encoding="UTF-8" standalone="no"?>
<!DOCTYPE svg PUBLIC "-//W3C//DTD SVG 1.1//EN" "http://www.w3.org/Graphics/SVG/1.1/DTD/svg11.dtd">
<svg width="100%" height="100%" viewBox="0 0 280 280" version="1.1" xmlns="http://www.w3.org/2000/svg" xmlns:xlink="http://www.w3.org/1999/xlink" xml:space="preserve" xmlns:serif="http://www.serif.com/" style="fill-rule:evenodd;clip-rule:evenodd;stroke-linecap:round;stroke-linejoin:round;stroke-miterlimit:10;">
    <g transform="matrix(2.33055,0,0,2.33055,-49.3105,-46.169)">
        <g>
            <path d="M102.908,92.329C103.3,95.86 106.201,98.716 109.74,99.046C111.92,99.253 113.931,98.539 115.436,97.242C116.933,95.952 118.783,95.154 120.756,95.154L122.975,95.154L122.975,123.257L80.078,123.257L80.078,113.093L82.012,113.093C84.123,113.093 86.104,113.93 87.731,115.273C89.044,116.363 90.732,117.023 92.575,117.023C97.066,117.023 100.643,113.139 100.144,108.556C99.752,105.025 96.851,102.169 93.312,101.839C91.132,101.632 89.121,102.346 87.616,103.643C86.119,104.933 84.269,105.731 82.296,105.731L80.077,105.731L80.077,80.361L122.973,80.361L122.973,87.792L121.039,87.792C118.928,87.792 116.947,86.955 115.32,85.612C114.007,84.522 112.319,83.862 110.476,83.862C105.986,83.861 102.409,87.746 102.908,92.329Z" style="fill:rgb(108,143,255);fill-rule:nonzero;"/>
            <path d="M102.908,58.675C103.3,62.206 106.201,65.062 109.74,65.392C111.92,65.599 113.931,64.885 115.436,63.588C116.933,62.298 118.783,61.5 120.756,61.5L122.975,61.5L122.975,77.099L80.078,77.099L80.078,61.5L77.859,61.5C75.886,61.5 74.036,62.298 72.539,63.588C71.034,64.885 69.023,65.599 66.843,65.392C63.304,65.062 60.402,62.206 60.011,58.675C59.512,54.092 63.089,50.208 67.58,50.208C69.422,50.208 71.111,50.868 72.424,51.958C74.051,53.301 76.032,54.138 78.143,54.138L80.077,54.138L80.077,34.202L122.973,34.202L122.973,54.138L121.039,54.138C118.928,54.138 116.947,53.301 115.32,51.958C114.007,50.868 112.319,50.208 110.476,50.208C105.986,50.208 102.409,54.092 102.908,58.675Z" style="fill:rgb(255,196,92);fill-rule:nonzero;"/>
            <path d="M94.878,119.327C93.036,119.327 91.347,118.667 90.034,117.577C88.407,116.234 86.426,115.397 84.315,115.397L82.381,115.397L82.381,125.561L62.445,125.561L62.445,123.627C62.445,121.516 63.282,119.535 64.625,117.908C65.715,116.595 66.375,114.907 66.375,113.064C66.375,108.573 62.491,104.996 57.908,105.495C54.377,105.887 51.521,108.788 51.191,112.327C50.984,114.507 51.698,116.518 52.995,118.023C54.285,119.52 55.083,121.37 55.083,123.343L55.083,125.562L39.485,125.562L39.485,82.664L55.084,82.664L55.084,80.445C55.084,78.472 54.286,76.622 52.996,75.125C51.699,73.62 50.985,71.609 51.192,69.429C51.522,65.89 54.378,62.988 57.909,62.597C62.492,62.098 66.376,65.675 66.376,70.166C66.376,72.008 65.716,73.697 64.626,75.01C63.283,76.637 62.446,78.618 62.446,80.729L62.446,82.663L82.382,82.663L82.382,108.034L84.601,108.034C86.574,108.034 88.424,107.236 89.921,105.946C91.426,104.649 93.437,103.935 95.617,104.142C99.156,104.472 102.058,107.328 102.449,110.859C102.946,115.442 99.369,119.327 94.878,119.327Z" style="fill:none;fill-rule:nonzero;stroke:black;stroke-width:2px;"/>
        </g>
    </g>
</svg>
