<?xml version="1.0" encoding="UTF-8" standalone="no"?>
<!DOCTYPE svg PUBLIC "-//W3C//DTD SVG 1.1//EN" "http://www.w3.org/Graphics/SVG/1.1/DTD/svg11.dtd">
<svg width="100%" height="100%" viewBox="0 0 280 280" version="1.1" xmlns="http://www.w3.org/2000/svg" xmlns:xlink="http://www.w3.org/1999/xlink" xml:space="preserve" xmlns:serif="http://www.serif.com/" style="fill-rule:evenodd;clip-rule:evenodd;stroke-linecap:round;stroke-linejoin:round;stroke-miterlimit:10;">
    <g transform="matrix(2.33055,0,0,2.33055,-1518.98,-344.654)">
        <g transform="matrix(1,0,0,1,282.587,-47.305)">
            <g>
                <g>
                    <path d="M476.443,275.97L456.852,295.56L448.255,286.963L444.447,283.162L464.045,263.564L467.845,267.372L476.443,275.97Z" style="fill:rgb(255,196,92);fill-rule:nonzero;"/>
                </g>
            </g>
            <rect x="405.272" y="236.503" width="17.808" height="20.067" style="fill:rgb(108,143,255);"/>
            <path d="M417.573,226.566C414.864,223.889 411.141,222.236 407.035,222.236C398.753,222.236 392.034,228.948 392.034,237.23C392.034,241.431 393.763,245.228 396.548,247.95L396.366,255.709L393.483,260.7L391.963,259.775C391.475,259.438 391.009,259.079 390.536,258.728L389.826,258.19C389.604,258.004 389.388,257.796 389.166,257.602L387.861,256.404L386.663,255.099C386.469,254.877 386.261,254.662 386.075,254.432L385.537,253.729C385.186,253.256 384.827,252.782 384.49,252.302L383.565,250.782L388.556,247.899C387.624,246.307 386.907,244.579 386.419,242.75L380.862,244.242C380.188,241.962 379.987,239.581 379.915,237.229C379.987,234.877 380.187,232.503 380.862,230.216L386.419,231.708C386.907,229.887 387.631,228.151 388.556,226.559L383.565,223.676L384.49,222.163C384.827,221.675 385.186,221.209 385.537,220.729L386.075,220.026C386.261,219.797 386.469,219.581 386.663,219.359L387.861,218.054L389.166,216.856C389.388,216.662 389.604,216.462 389.826,216.268L390.536,215.737C391.009,215.386 391.475,215.02 391.963,214.683L393.483,213.758L396.373,218.756C397.965,217.824 399.693,217.1 401.514,216.619L400.023,211.054C402.303,210.387 404.684,210.186 407.036,210.107C409.388,210.186 411.761,210.387 414.042,211.054L412.558,216.619C414.379,217.099 416.107,217.824 417.699,218.756L420.589,213.758L422.102,214.683C422.59,215.02 423.056,215.386 423.529,215.737L424.239,216.268C424.468,216.462 424.683,216.662 424.899,216.856L426.211,218.054L427.408,219.359C427.602,219.581 427.802,219.796 427.996,220.026L428.527,220.729C428.878,221.209 429.244,221.676 429.581,222.163L430.506,223.676L425.508,226.566L417.573,226.566Z" style="fill:rgb(118,226,255);fill-rule:nonzero;"/>
            <path d="M451.893,299.344C451.893,301.124 450.45,302.567 448.67,302.567L400.23,302.567C398.45,302.567 397.007,301.124 397.007,299.344L397.007,229.601C397.007,227.821 398.45,226.378 400.23,226.378L448.67,226.378C450.45,226.378 451.893,227.821 451.893,229.601L451.893,264.748" style="fill:none;fill-rule:nonzero;stroke:black;stroke-width:2px;"/>
            <g>
                <g>
                    <path d="M465.694,265.221L446.103,284.811L442.296,281.011L461.894,261.413L465.694,265.221Z" style="fill:none;fill-rule:nonzero;stroke:black;stroke-width:2px;"/>
                    <g transform="matrix(0.7071,-0.7071,0.7071,0.7071,-63.6615,409.498)">
                        <rect x="448.625" y="278.741" width="27.705" height="5.709" style="fill:none;stroke:black;stroke-width:2px;"/>
                    </g>
                    <path d="M479.419,268.699L478.193,269.918L465.795,257.52L467.014,256.294C468.778,254.53 471.639,254.53 473.403,256.294L479.419,262.31C481.183,264.074 481.183,266.935 479.419,268.699Z" style="fill:none;fill-rule:nonzero;stroke:black;stroke-width:2px;"/>
                    <path d="M478.193,269.918L474.292,273.819L470.255,269.781L465.694,265.221L461.894,261.413L465.794,257.519L478.193,269.918Z" style="fill:none;fill-rule:nonzero;stroke:black;stroke-width:2px;"/>
                    <path d="M465.794,257.519L461.894,261.413L465.787,257.512L465.794,257.519Z" style="fill:none;fill-rule:nonzero;stroke:black;stroke-width:2px;"/>
                    <g transform="matrix(0.7071,-0.7071,0.7071,0.7071,-61.8807,405.2)">
                        <rect x="444.326" y="274.072" width="27.705" height="6.45" style="fill:none;stroke:black;stroke-width:2px;"/>
                    </g>
                    <path d="M450.894,293.775L442.612,294.571C441.766,294.65 441.056,293.94 441.142,293.094L441.594,288.368L450.894,293.775Z" style="fill:none;fill-rule:nonzero;stroke:black;stroke-width:2px;"/>
                    <path d="M454.701,293.409L450.894,293.775L441.593,288.368L442.296,281.011L446.103,284.811L454.701,293.409Z" style="fill:none;fill-rule:nonzero;stroke:black;stroke-width:2px;"/>
                </g>
            </g>
            <rect x="403.121" y="234.352" width="17.808" height="20.067" style="fill:none;stroke:black;stroke-width:2px;"/>
            <path d="M403.121,262.199L446.103,262.199" style="fill:none;fill-rule:nonzero;stroke:black;stroke-width:2px;"/>
            <path d="M403.121,271.169L446.103,271.169" style="fill:none;fill-rule:nonzero;stroke:black;stroke-width:2px;"/>
            <path d="M403.121,280.738L438.87,280.738" style="fill:none;fill-rule:nonzero;stroke:black;stroke-width:2px;"/>
            <path d="M403.121,290.345L434.218,290.345" style="fill:none;fill-rule:nonzero;stroke:black;stroke-width:2px;"/>
            <g>
                <g>
                    <g>
                        <path d="M423.355,224.416L428.353,221.526L427.428,220.013C427.091,219.525 426.725,219.059 426.374,218.579L425.843,217.876C425.649,217.647 425.449,217.431 425.255,217.209L424.058,215.904L422.746,214.706C422.531,214.512 422.316,214.312 422.086,214.118L421.376,213.587C420.903,213.236 420.437,212.87 419.949,212.533L418.436,211.608L415.546,216.606C413.954,215.674 412.226,214.95 410.405,214.469L411.889,208.904C409.609,208.237 407.235,208.036 404.883,207.957C402.531,208.036 400.15,208.237 397.87,208.904L399.361,214.469C397.54,214.949 395.811,215.674 394.22,216.606L391.33,211.608L389.81,212.533C389.322,212.87 388.856,213.236 388.383,213.587L387.673,214.118C387.451,214.312 387.235,214.512 387.013,214.706L385.708,215.904L384.51,217.209C384.316,217.431 384.108,217.646 383.922,217.876L383.384,218.579C383.033,219.059 382.674,219.526 382.337,220.013L381.412,221.526L386.403,224.409C385.478,226.001 384.754,227.736 384.266,229.558L378.709,228.066C378.035,230.353 377.834,232.727 377.762,235.079C377.834,237.431 378.034,239.812 378.709,242.092L384.266,240.6C384.754,242.429 385.471,244.157 386.403,245.749L381.412,248.632L382.337,250.152C382.674,250.632 383.033,251.106 383.384,251.579L383.922,252.282C384.108,252.511 384.316,252.727 384.51,252.949L385.708,254.254L387.013,255.452C387.235,255.646 387.451,255.854 387.673,256.04L388.383,256.578C388.856,256.929 389.322,257.288 389.81,257.625L391.33,258.55L394.213,253.559M394.395,245.799C391.61,243.077 389.881,239.28 389.881,235.079C389.881,226.797 396.6,220.085 404.882,220.085C408.988,220.085 412.711,221.738 415.42,224.415" style="fill:none;fill-rule:nonzero;stroke:black;stroke-width:2px;"/>
                    </g>
                </g>
            </g>
        </g>
    </g>
</svg>
