<?xml version="1.0" encoding="UTF-8" standalone="no"?>
<!DOCTYPE svg PUBLIC "-//W3C//DTD SVG 1.1//EN" "http://www.w3.org/Graphics/SVG/1.1/DTD/svg11.dtd">
<svg width="100%" height="100%" viewBox="0 0 280 280" version="1.1" xmlns="http://www.w3.org/2000/svg" xmlns:xlink="http://www.w3.org/1999/xlink" xml:space="preserve" xmlns:serif="http://www.serif.com/" style="fill-rule:evenodd;clip-rule:evenodd;stroke-linecap:round;stroke-linejoin:round;stroke-miterlimit:10;">
    <g transform="matrix(2.33055,0,0,2.33055,-538.591,-878.309)">
        <g>
            <g>
                <path d="M291.422,474.315C273.597,474.315 259.095,459.813 259.095,441.987C259.095,424.161 273.597,409.659 291.422,409.659C309.248,409.659 323.75,424.161 323.75,441.987C323.75,459.813 309.248,474.315 291.422,474.315ZM291.422,417.358C277.842,417.358 266.794,428.406 266.794,441.987C266.794,455.568 277.842,466.616 291.422,466.616C305.003,466.616 316.051,455.568 316.051,441.987C316.051,428.406 305.003,417.358 291.422,417.358Z" style="fill:rgb(108,143,255);fill-rule:nonzero;"/>
            </g>
            <path d="M319.879,437.738C319.926,438.431 319.95,439.131 319.95,439.836C319.95,456.779 306.215,470.514 289.272,470.514C272.329,470.514 258.594,456.779 258.594,439.836C258.594,422.893 272.329,409.158 289.272,409.158C295.292,409.158 300.908,410.892 305.646,413.888" style="fill:none;fill-rule:nonzero;stroke:black;stroke-width:2px;"/>
            <path d="M313.467,438.137C313.506,438.698 313.526,439.265 313.526,439.836C313.526,453.231 302.667,464.09 289.272,464.09C275.877,464.09 265.018,453.231 265.018,439.836C265.018,426.441 275.877,415.582 289.272,415.582C291.468,415.582 293.596,415.874 295.619,416.421" style="fill:none;fill-rule:nonzero;stroke:black;stroke-width:2px;"/>
            <path d="M289.271,409.158L289.271,405.39" style="fill:none;fill-rule:nonzero;stroke:black;stroke-width:2px;"/>
            <rect x="276.608" y="399.564" width="25.327" height="5.826" style="fill:none;stroke:black;stroke-width:2px;"/>
            <g>
                <g>
                    <path d="M320.813,417.862L320.813,437.273L314.824,437.273L314.824,428.068L299.554,443.286L293.206,436.93L280.879,449.309L276.636,445.083L293.198,428.453L299.563,434.817L310.573,423.85L300.392,423.85L300.392,417.862L320.813,417.862Z" style="fill:rgb(255,196,92);fill-rule:nonzero;"/>
                </g>
            </g>
            <g>
                <g>
                    <path d="M318.661,415.711L318.661,435.121L312.673,435.121L312.673,425.916L297.403,441.135L291.055,434.779L278.728,447.158L274.485,442.932L291.047,426.301L297.411,432.666L308.421,421.699L298.241,421.699L298.241,415.711L318.661,415.711Z" style="fill:none;fill-rule:nonzero;stroke:black;stroke-width:2px;"/>
                </g>
            </g>
            <circle cx="289.271" cy="420.452" r="2.735"/>
            <circle cx="269.546" cy="439.836" r="2.735"/>
            <circle cx="289.271" cy="458.621" r="2.735"/>
        </g>
    </g>
</svg>
